<svg xmlns="http://www.w3.org/2000/svg" xmlns:xlink="http://www.w3.org/1999/xlink" version="1.1" width="841.89pt" height="595.276pt" viewBox="0 0 841.89 595.276">
<defs>
<clipPath id="clip_0">
<path transform="matrix(1,0,0,-1,0,595.276)" d="M0 595.276H841.89V0H0Z"/>
</clipPath>
<clipPath id="clip_1">
<path transform="matrix(1,0,0,-1,0,595.276)" d="M0 595.276H841.89V0H0Z"/>
</clipPath>
</defs>
<g id="layer_1" data-name="Layer 1">
<g clip-path="url(#clip_0)">
<path transform="matrix(1,0,0,-1,195.4385,302.01863)" d="M0 0C0 50.527 50.21 91.488 112.147 91.488 160.623 91.488 201.91 66.396 217.569 31.266 203.713 71.666 158.391 101.301 104.577 101.301 39.752 101.301-12.799 58.313-12.799 5.284-12.799-44.986 34.436-86.206 94.573-90.362 40.986-83.48 0-45.649 0 0" fill="#1475bc"/>
<path transform="matrix(1,0,0,-1,511.6504,205.5122)" d="M0 0C-22.987 48.093-71.972 81.941-130.289 81.941-186.113 81.941-234.546 51.393-258.826 6.628L-225.188 21.884C-199.771 49.876-162.5 67.572-120.928 67.572-69.408 67.572-24.484 40.41-.577 .118-.381 .084-.187 .046 0 0" fill="#1475bc"/>
<path transform="matrix(1,0,0,-1,338.3467,162.06839)" d="M0 0C-84.244 0-152.537-51.411-152.537-114.83-152.537-124.752-150.833-134.37-147.689-143.552-147.157-126.221-139.076-107.749-131.348-93.91-115.222-46.662-58.126-11.736 9.837-11.736 72.834-11.736 126.488-41.745 146.839-83.757 128.832-35.442 69.933 0 0 0" fill="#1475bc"/>
<path transform="matrix(1,0,0,-1,528.1309,195.0903)" d="M0 0C-7.384 0-14.564-.891-21.467-2.542L-16.803-10.835C-13.314-10.415-9.769-10.194-6.172-10.194 44.323-10.194 85.258-52.743 85.258-105.23 85.258-149.112 56.635-186.018 17.743-196.949 17.897-197.17 18.04-197.401 18.172-197.637 62.325-188.787 95.692-148.345 95.692-99.741 95.692-44.656 52.85 0 0 0" fill="#1475bc"/>
<path transform="matrix(1,0,0,-1,0,595.276)" d="M286.527 297.017H312.049V202.22299H286.527Z" fill="#00aeef"/>
<path transform="matrix(1,0,0,-1,384.3828,368.55183)" d="M0 0C3.305 0 6.345 .558 9.115 1.677 11.885 2.793 14.293 4.349 16.334 6.343 18.375 8.335 19.954 10.741 21.073 13.563 22.19 16.382 22.751 19.491 22.751 22.896 22.751 26.299 22.19 29.408 21.073 32.229 19.954 35.049 18.375 37.48 16.334 39.521 14.293 41.563 11.885 43.144 9.115 44.263 6.345 45.378 3.305 45.939 0 45.939H-30.771V0ZM-56.293-24.501V70.293H-1.75C5.444 70.293 12.104 69.15 18.23 66.866 24.355 64.581 29.628 61.348 34.054 57.168 38.476 52.987 41.951 48.003 44.48 42.219 47.007 36.435 48.272 29.991 48.272 22.896 48.272 15.799 47.007 9.334 44.48 3.5 41.951-2.334 38.476-7.317 34.054-11.449 29.628-15.583 24.355-18.791 18.23-21.074 12.104-23.36 5.444-24.501-1.75-24.501Z" fill="#00aeef"/>
<path transform="matrix(1,0,0,-1,514.6143,393.0527)" d="M0 0-28.001 32.668-55.272 0H-85.606L-44.042 49.438-82.253 94.794H-50.021L-25.958 66.064-1.75 94.794H28.585L-9.771 49.292 32.23 0Z" fill="#00aeef"/>
</g>
<text fill="#262261" xml:space="preserve" transform="matrix(1 0 -0 1 0 595.276)" font-size="52.1198" font-family="GoodTimingRg" font-weight="bold"><tspan y="-139.8779" x="157.0103 171.86444 214.28997 250.66959 294.9193 308.93955 347.35185 386.59806 416.04576 461.9633 475.98353 527.47787 571.72756 613.7882">INFO DATA WORX</tspan></text>
<g clip-path="url(#clip_1)">
<path transform="matrix(1,0,0,-1,525.6904,289.6572)" d="M0 0C-.021-.071-.042-.143-.062-.215-.084-.296-.125-.355-.22-.34-.32-.324-.324-.243-.318-.166-.312-.087-.296-.01-.278 .106-.349 .037-.394-.007-.438-.053-.779-.401-1.151-.708-1.562-.974-2.077-1.309-2.669-1.098-3.02-.724-3.426-.29-3.49 .282-3.145 .732-2.979 .948-2.746 1.114-2.541 1.299-2.485 1.349-2.417 1.383-2.324 1.444-2.487 1.427-2.619 1.415-2.749 1.399-3.239 1.339-3.719 1.407-4.19 1.535-4.311 1.567-4.427 1.63-4.531 1.701-4.823 1.896-4.893 2.145-4.735 2.459-4.663 2.605-4.562 2.739-4.463 2.869-4.109 3.329-4.108 3.327-4.304 3.864-4.464 4.309-4.604 4.758-4.612 5.237-4.622 5.875-4.278 6.16-3.655 6.025-3.248 5.938-2.885 5.746-2.538 5.525-1.527 4.879-.679 4.068-.033 3.052 .054 2.915 .127 2.769 .206 2.626 .22 2.628 .233 2.629 .248 2.63 .246 2.81 .261 2.99 .24 3.167 .164 3.813-.071 4.408-.397 4.967-.547 5.222-.722 5.462-.886 5.71-.914 5.753-.94 5.797-.945 5.854-.229 5.057 .262 4.145 .47 3.072 1.068 3.937 1.819 4.602 2.746 5.062 2.756 5.051 2.766 5.04 2.775 5.028 2.735 4.997 2.696 4.963 2.653 4.936 2.114 4.601 1.616 4.215 1.197 3.734 .93 3.428 .698 3.097 .554 2.713 .536 2.667 .533 2.616 .521 2.558 .544 2.564 .561 2.563 .568 2.57 1.335 3.246 2.246 3.645 3.208 3.943 3.718 4.101 4.238 4.224 4.773 4.231 5.053 4.235 5.339 4.202 5.611 4.142 6.015 4.052 6.201 3.678 6.069 3.288 5.932 2.883 5.683 2.546 5.414 2.223 5.29 2.074 5.163 1.928 5.025 1.792 4.862 1.633 4.823 1.447 4.875 1.236 4.911 1.085 4.96 .937 4.999 .787 5.161 .163 4.905-.17 4.264-.15 3.644-.131 3.093 .112 2.563 .413 2.527 .434 2.492 .456 2.438 .461 2.477 .407 2.517 .354 2.554 .3 2.772-.015 2.94-.35 2.937-.745 2.928-1.503 2.241-1.888 1.676-1.902 1.345-1.911 1.07-1.796 .857-1.534 .53-1.13 .31-.667 .112-.191 .086-.127 .061-.062 .035 .002 .023 .001 .012 0 0 0" fill="#fabc15"/>
<path transform="matrix(1,0,0,-1,536.5869,286.0605)" d="M0 0C-.014-.05-.029-.1-.043-.15-.058-.207-.087-.248-.152-.237-.223-.226-.226-.169-.222-.116-.217-.061-.206-.007-.194 .074-.243 .025-.274-.005-.306-.037-.543-.28-.804-.495-1.089-.68-1.449-.914-1.862-.767-2.107-.505-2.391-.203-2.436 .197-2.194 .511-2.078 .662-1.916 .778-1.772 .907-1.734 .941-1.687 .965-1.622 1.008-1.736 .996-1.827 .987-1.919 .976-2.261 .935-2.596 .982-2.924 1.071-3.008 1.094-3.09 1.138-3.162 1.187-3.365 1.323-3.414 1.497-3.305 1.716-3.254 1.818-3.184 1.912-3.114 2.002-2.868 2.323-2.867 2.322-3.003 2.697-3.115 3.007-3.214 3.321-3.219 3.655-3.226 4.1-2.986 4.299-2.551 4.206-2.267 4.145-2.014 4.011-1.771 3.856-1.065 3.405-.473 2.839-.022 2.13 .038 2.035 .089 1.933 .144 1.833 .154 1.834 .164 1.835 .174 1.836 .172 1.961 .183 2.087 .168 2.21 .115 2.662-.049 3.077-.276 3.466-.381 3.645-.504 3.813-.617 3.985-.638 4.015-.656 4.046-.659 4.085-.159 3.53 .184 2.893 .328 2.144 .746 2.748 1.271 3.211 1.917 3.534 1.924 3.525 1.931 3.517 1.937 3.509 1.909 3.488 1.883 3.464 1.853 3.445 1.477 3.211 1.129 2.942 .836 2.606 .649 2.393 .488 2.162 .387 1.894 .375 1.861 .372 1.826 .364 1.786 .38 1.79 .392 1.789 .397 1.794 .932 2.266 1.568 2.543 2.239 2.752 2.596 2.862 2.959 2.948 3.332 2.953 3.527 2.956 3.727 2.933 3.917 2.891 4.198 2.829 4.328 2.567 4.236 2.295 4.141 2.012 3.967 1.777 3.779 1.551 3.692 1.448 3.604 1.345 3.508 1.251 3.395 1.14 3.367 1.01 3.402 .863 3.429 .757 3.462 .654 3.489 .549 3.603 .114 3.424-.119 2.977-.105 2.544-.091 2.159 .078 1.789 .288 1.765 .302 1.74 .318 1.702 .322 1.729 .284 1.757 .248 1.783 .209 1.936-.01 2.053-.245 2.05-.52 2.044-1.049 1.564-1.318 1.17-1.328 .938-1.333 .747-1.253 .599-1.071 .37-.789 .216-.466 .079-.134 .061-.089 .043-.043 .024 .001 .017 .001 .009 0 0 0" fill="#eb4335"/>
<path transform="matrix(1,0,0,-1,523.0625,298.0825)" d="M0 0C-.014-.046-.027-.092-.04-.138-.054-.19-.08-.228-.141-.218-.205-.208-.208-.156-.204-.106-.2-.056-.189-.007-.179 .068-.224 .023-.253-.005-.281-.034-.499-.257-.738-.454-1-.624-1.331-.839-1.71-.704-1.935-.464-2.194-.186-2.236 .181-2.015 .469-1.908 .607-1.76 .714-1.628 .832-1.593 .864-1.548 .886-1.489 .925-1.594 .914-1.678 .906-1.762 .896-2.075 .858-2.383 .901-2.685 .983-2.762 1.004-2.836 1.044-2.903 1.089-3.09 1.214-3.134 1.374-3.034 1.575-2.987 1.668-2.923 1.754-2.859 1.838-2.633 2.132-2.632 2.131-2.757 2.475-2.86 2.76-2.95 3.048-2.955 3.354-2.961 3.763-2.741 3.946-2.342 3.86-2.081 3.804-1.849 3.681-1.626 3.539-.979 3.125-.435 2.606-.021 1.955 .034 1.867 .081 1.773 .132 1.683 .141 1.683 .149 1.684 .158 1.685 .157 1.799 .167 1.915 .153 2.028 .104 2.443-.046 2.824-.255 3.182-.351 3.345-.463 3.499-.567 3.657-.586 3.685-.603 3.713-.605 3.75-.146 3.239 .168 2.655 .301 1.967 .684 2.521 1.165 2.947 1.759 3.243 1.765 3.235 1.771 3.228 1.778 3.221 1.752 3.201 1.728 3.179 1.699 3.162 1.354 2.947 1.035 2.7 .767 2.392 .596 2.196 .447 1.984 .354 1.738 .343 1.708 .341 1.675 .334 1.639 .349 1.642 .358 1.642 .364 1.646 .854 2.08 1.438 2.334 2.055 2.525 2.381 2.627 2.715 2.706 3.058 2.71 3.236 2.713 3.42 2.691 3.595 2.653 3.853 2.596 3.972 2.356 3.888 2.106 3.8 1.847 3.64 1.631 3.468 1.424 3.389 1.329 3.308 1.234 3.219 1.148 3.114 1.046 3.09 .927 3.122 .792 3.146 .695 3.177 .6 3.202 .503 3.306 .104 3.142-.109 2.73-.097 2.334-.084 1.98 .072 1.642 .264 1.618 .277 1.597 .292 1.562 .295 1.586 .261 1.611 .227 1.636 .192 1.775-.009 1.884-.225 1.881-.477 1.875-.962 1.436-1.209 1.073-1.218 .861-1.224 .686-1.151 .549-.983 .339-.724 .198-.428 .071-.123 .055-.082 .039-.04 .022 .001 .015 0 .007 0 0 0" fill="#3764af"/>
<path transform="matrix(1,0,0,-1,529.9336,279.1782)" d="M0 0C-.008-.03-.017-.06-.025-.089-.034-.123-.051-.147-.091-.141-.132-.134-.134-.101-.131-.069-.129-.037-.122-.004-.115 .044-.145 .015-.163-.003-.182-.022-.322-.167-.477-.294-.646-.404-.861-.543-1.106-.456-1.252-.3-1.42-.121-1.446 .117-1.304 .303-1.234 .393-1.139 .462-1.053 .539-1.03 .559-1.002 .573-.963 .599-1.031 .591-1.085 .586-1.14 .58-1.343 .555-1.541 .583-1.737 .636-1.787 .65-1.835 .676-1.878 .705-1.999 .786-2.028 .889-1.963 1.02-1.933 1.08-1.892 1.136-1.85 1.189-1.703 1.38-1.703 1.379-1.784 1.602-1.851 1.786-1.909 1.973-1.912 2.171-1.916 2.436-1.773 2.554-1.515 2.498-1.347 2.462-1.195 2.382-1.052 2.291-.633 2.023-.281 1.687-.014 1.266 .022 1.208 .053 1.148 .086 1.089L.104 1.09C.103 1.165 .108 1.24 .1 1.313 .068 1.581-.029 1.828-.164 2.059-.227 2.165-.299 2.265-.366 2.367-.379 2.385-.39 2.403-.392 2.427-.095 2.097 .109 1.718 .195 1.273 .443 1.632 .755 1.908 1.139 2.099 1.143 2.094 1.147 2.089 1.151 2.084 1.135 2.072 1.118 2.058 1.101 2.046 .877 1.907 .671 1.748 .497 1.548 .386 1.421 .29 1.284 .229 1.125 .223 1.105 .222 1.084 .217 1.061 .227 1.063 .232 1.062 .236 1.065 .554 1.346 .932 1.511 1.33 1.635 1.542 1.7 1.758 1.751 1.979 1.754 2.096 1.756 2.214 1.742 2.327 1.717 2.494 1.68 2.571 1.525 2.517 1.363 2.46 1.195 2.356 1.056 2.245 .921 2.194 .86 2.142 .799 2.084 .743 2.017 .677 2 .6 2.021 .512 2.037 .45 2.057 .388 2.073 .326 2.141 .067 2.034-.071 1.769-.062 1.511-.054 1.282 .046 1.063 .171 1.048 .18 1.034 .189 1.011 .191 1.027 .169 1.044 .147 1.06 .125 1.15-.006 1.22-.146 1.218-.309 1.215-.623 .93-.783 .695-.789 .558-.792 .444-.745 .356-.636 .22-.468 .129-.277 .047-.08 .036-.053 .025-.026 .015 0 .01 0 .005 0 0 0" fill="#f36e21"/>
<path transform="matrix(1,0,0,-1,535.8203,295.4937)" d="M0 0C-.016-.054-.032-.107-.047-.162-.062-.223-.094-.268-.165-.256-.241-.244-.244-.183-.239-.125-.235-.066-.224-.008-.21 .081-.263 .028-.297-.005-.33-.04-.587-.302-.868-.534-1.178-.734-1.566-.987-2.013-.828-2.277-.545-2.583-.219-2.632 .213-2.371 .552-2.246 .715-2.071 .84-1.916 .98-1.874 1.017-1.822 1.043-1.753 1.089-1.876 1.076-1.975 1.067-2.073 1.055-2.443 1.01-2.805 1.061-3.16 1.158-3.251 1.182-3.339 1.23-3.417 1.283-3.637 1.43-3.689 1.618-3.571 1.854-3.517 1.965-3.44 2.066-3.365 2.164-3.1 2.51-3.099 2.509-3.245 2.914-3.366 3.249-3.473 3.588-3.479 3.949-3.485 4.43-3.227 4.646-2.756 4.544-2.449 4.478-2.176 4.333-1.914 4.167-1.152 3.679-.512 3.068-.024 2.302 .041 2.199 .096 2.088 .155 1.981 .166 1.982 .177 1.983 .187 1.984 .186 2.119 .196 2.255 .181 2.388 .124 2.876-.054 3.325-.3 3.746-.412 3.938-.545 4.12-.668 4.306-.689 4.338-.71 4.372-.713 4.414-.173 3.813 .197 3.125 .354 2.316 .806 2.969 1.372 3.47 2.07 3.818 2.078 3.809 2.086 3.8 2.093 3.792 2.063 3.769 2.033 3.743 2.001 3.722 1.595 3.469 1.219 3.179 .903 2.816 .701 2.585 .526 2.336 .417 2.046 .404 2.011 .401 1.973 .394 1.929 .41 1.934 .423 1.933 .429 1.938 1.007 2.448 1.693 2.749 2.419 2.974 2.804 3.093 3.196 3.185 3.6 3.191 3.811 3.194 4.026 3.169 4.231 3.124 4.535 3.056 4.676 2.774 4.577 2.48 4.474 2.174 4.285 1.92 4.083 1.676 3.989 1.564 3.894 1.454 3.79 1.352 3.667 1.231 3.637 1.092 3.676 .932 3.703 .818 3.74 .707 3.77 .593 3.892 .123 3.699-.128 3.215-.113 2.748-.099 2.332 .084 1.933 .312 1.905 .327 1.88 .344 1.838 .348 1.867 .308 1.897 .268 1.926 .227 2.091-.011 2.218-.264 2.215-.561 2.208-1.133 1.69-1.423 1.264-1.434 1.014-1.44 .807-1.354 .646-1.157 .399-.852 .233-.503 .085-.144 .064-.096 .046-.047 .026 .001Z" fill="#2ca951"/>
<path transform="matrix(1,0,0,-1,232.1582,202.9819)" d="M0 0-25.175-15.587C-25.175-15.587-94.81-105.679-2.416-170.295-2.416-170.295-96.622-89.979 0 0" fill="#1475bc"/>
</g>
</g>
</svg>
